# xmcd
#
# Track frame offsets: 
#        150
#        24532
#        43238
#        63342
#        87449
#        110055
#        135324
#        158072
#        180891
#        202783
#
# Disc length: 2924 seconds
#
# Revision: 0
# Processed by: cddbd v1.5.2PL0 Copyright (c) Steve Scherf et al.
# Submitted via: ExactAudioCopy v1.0b3
#
DISCID=7a0b6a0a
DTITLE=Truong Vu, Giao Linh - Con Me Tinh Ai
DYEAR=1998
DGENRE=
TTITLE0=Truong Vu - Con me tinh ai
TTITLE1=Truong Vu - Dua em ve
TTITLE2=Truong Vu - Sau lan hen cuoi
TTITLE3=Neu chung minh cach tro
TTITLE4=Truong Vu - Thuyen xa ben do
TTITLE5=Toi van nho
TTITLE6=Truong Vu - Loi dang cho mot cuoc tinh
TTITLE7=Truong Vu - Ta tu trong dem
TTITLE8=Dem tien don
TTITLE9=Truong Vu - Bac trang lua hong
EXTD=
EXTT0=
EXTT1=
EXTT2=
EXTT3=
EXTT4=
EXTT5=
EXTT6=
EXTT7=
EXTT8=
EXTT9=
PLAYORDER=
